<?xml version="1.0" standalone="no"?>
<!DOCTYPE svg PUBLIC "-//W3C//DTD SVG 20010904//EN"
 "http://www.w3.org/TR/2001/REC-SVG-20010904/DTD/svg10.dtd">
<svg version="1.0" xmlns="http://www.w3.org/2000/svg"
 width="510.000000pt" height="511.000000pt" viewBox="0 0 510.000000 511.000000"
 preserveAspectRatio="xMidYMid meet">

<g transform="translate(0.000000,511.000000) scale(0.100000,-0.100000)"
fill="#000000" stroke="none">
<path d="M0 2555 l0 -2555 2550 0 2550 0 0 2555 0 2555 -2550 0 -2550 0 0
-2555z m4064 1864 c19 -15 26 -30 26 -54 0 -24 -7 -39 -26 -54 -24 -19 -40
-21 -153 -21 l-126 0 -185 -662 c-102 -363 -192 -671 -202 -682 -16 -21 -17
-21 -835 -23 -780 -3 -819 -2 -842 16 -21 16 -38 81 -153 586 -110 487 -127
573 -117 596 6 15 18 31 27 36 10 4 383 10 830 13 l812 5 -55 57 c-45 47 -55
63 -55 92 0 25 7 40 26 55 50 39 66 31 210 -111 183 -181 182 -163 18 -328
-115 -117 -131 -130 -163 -130 -46 0 -71 24 -71 69 0 29 9 44 52 88 l52 53
-759 -2 c-669 -3 -760 -5 -758 -18 1 -15 88 -403 167 -745 l41 -180 733 -3
c402 -1 732 0 732 4 0 3 66 238 146 522 80 284 161 573 180 642 43 154 52 178
73 190 9 5 91 10 182 10 153 0 168 -2 193 -21z m-1879 -1642 c107 -54 168
-153 167 -267 -1 -176 -125 -301 -297 -301 -171 0 -299 126 -300 296 0 137 79
249 207 291 64 21 162 13 223 -19z m945 16 c61 -20 142 -88 171 -145 70 -138
26 -312 -101 -393 -115 -73 -267 -60 -368 30 -80 72 -118 191 -93 290 44 175
220 273 391 218z m-1280 -1062 c56 -39 61 -66 58 -296 -3 -231 -8 -249 -69
-281 -37 -19 -112 -18 -150 2 -58 30 -69 74 -69 292 0 204 6 238 48 276 43 37
133 41 182 7z m248 -13 c5 -18 26 -98 48 -178 l39 -145 3 178 2 177 40 0 40 0
-2 -302 -3 -303 -44 0 -44 0 -56 207 c-31 115 -59 208 -62 208 -4 0 -7 -93 -7
-207 l0 -208 -39 0 -38 0 -3 303 -2 302 59 0 c59 0 60 0 69 -32z m340 -228
l-3 -260 78 0 77 0 0 -45 0 -46 -122 3 -123 3 -3 303 -2 302 50 0 51 0 -3
-260z m290 -42 l-3 -303 -40 0 -40 0 -3 303 -2 302 45 0 45 0 -2 -302z m220
190 c17 -62 37 -135 43 -163 7 -27 17 -54 21 -59 4 -6 8 67 8 162 l0 172 40 0
40 0 0 -306 0 -305 -47 3 -48 3 -52 190 c-28 105 -52 198 -52 208 -1 9 -6 17
-12 17 -6 0 -10 -10 -9 -22 1 -13 2 -108 1 -211 l-1 -188 -37 3 -38 4 -3 302
-2 302 59 0 59 0 30 -112z m482 72 l0 -40 -62 -1 c-112 -2 -102 7 -102 -89
l-1 -85 68 -3 67 -3 0 -39 0 -39 -67 -3 -68 -3 -1 -87 -1 -88 84 0 84 0 -3
-42 -3 -43 -125 0 -125 0 -3 303 -2 302 130 0 130 0 0 -40z m-1245 -682 c24
-11 48 -62 38 -80 -10 -19 -31 -6 -36 22 -6 25 -11 30 -36 30 -17 0 -31 -6
-35 -16 -15 -39 -5 -63 48 -114 58 -56 72 -90 54 -140 -10 -31 -40 -50 -79
-50 -31 0 -69 44 -69 80 0 40 26 40 35 0 4 -17 15 -35 25 -40 24 -13 26 -13
44 6 30 29 19 64 -33 115 -75 72 -85 102 -56 159 20 38 56 48 100 28z m369 1
c39 -18 48 -55 44 -188 -4 -140 -12 -156 -79 -156 -68 0 -79 23 -79 165 0 131
8 166 42 180 31 12 43 12 72 -1z m-144 -14 c0 -10 -10 -15 -30 -15 l-30 0 0
-155 c0 -148 -1 -155 -20 -155 -19 0 -20 7 -20 155 l0 155 -30 0 c-20 0 -30 5
-30 15 0 12 16 15 80 15 64 0 80 -3 80 -15z m364 -7 c21 -29 20 -107 0 -136
-14 -20 -14 -24 0 -38 23 -22 23 -156 1 -148 -11 5 -15 21 -15 60 0 58 -27
101 -57 90 -8 -3 -19 -6 -24 -6 -5 0 -9 -31 -9 -70 0 -56 -3 -70 -15 -70 -13
0 -15 26 -15 170 l0 170 59 0 c51 0 62 -3 75 -22z m206 7 c0 -12 -13 -15 -55
-15 l-55 0 0 -60 0 -60 45 0 c33 0 45 -4 45 -15 0 -8 -8 -15 -17 -16 -73 -4
-68 1 -71 -66 l-3 -63 56 0 c48 0 56 -3 53 -17 -2 -14 -14 -16 -68 -14 -36 1
-66 4 -67 5 -3 2 -5 243 -4 309 1 27 1 27 71 27 56 0 70 -3 70 -15z"/>
<path d="M1995 2646 c-90 -39 -120 -149 -64 -228 62 -86 207 -77 256 15 66
127 -63 269 -192 213z"/>
<path d="M2963 2640 c-106 -54 -107 -211 -1 -266 94 -49 203 8 223 116 7 42
-26 113 -66 143 -41 29 -106 32 -156 7z"/>
<path d="M1729 1653 c-11 -12 -15 -61 -17 -197 -3 -205 3 -231 53 -231 50 0
56 26 53 238 -3 154 -6 189 -18 197 -23 15 -56 12 -71 -7z"/>
<path d="M2487 993 c-4 -3 -7 -64 -7 -134 0 -118 2 -129 20 -139 14 -8 26 -8
40 0 18 10 20 21 20 130 0 65 -3 125 -6 134 -6 16 -54 22 -67 9z"/>
<path d="M2670 936 l0 -66 35 0 c45 0 63 32 49 88 -8 34 -12 37 -46 40 l-38 3
0 -65z"/>
</g>
</svg>
